
<svg width="295px" height="69px" viewBox="0 0 295 69" version="1.1" xmlns="http://www.w3.org/2000/svg" xmlns:xlink="http://www.w3.org/1999/xlink">
    <!-- Generator: Sketch 49.2 (51160) - http://www.bohemiancoding.com/sketch -->
    <desc>Created with Sketch.</desc>
    <defs></defs>
    <g id="Welcome" stroke="none" stroke-width="1" fill="none" fill-rule="evenodd">
        <g id="Desktop-HD" transform="translate(-573.000000, -15.000000)" fill="#FFFFFF">
            <g id="NavigationBar" transform="translate(0.000000, -105.000000)">
                <path d="M609.772,121.388 C611.356008,121.388 612.543996,121.729997 613.336,122.414 C614.128004,123.098003 614.685998,123.979995 615.01,125.06 C615.334002,126.140005 615.549999,127.309994 615.658,128.57 C615.766001,129.830006 615.891999,131.035994 616.036,132.188 L616.036,136.076 C616.468002,136.868004 617.025997,137.929993 617.71,139.262 C618.394003,140.594007 618.736,141.943993 618.736,143.312 L618.736,146.012 C618.736,146.228001 618.915998,146.875995 619.276,147.956 C619.636002,149.036005 620.049998,150.223994 620.518,151.52 C620.986002,152.816006 621.399998,154.057994 621.76,155.246 C622.120002,156.434006 622.3,157.243998 622.3,157.676 C622.3,159.044007 622.479998,160.861989 622.84,163.13 C623.200002,165.398011 623.667997,167.611989 624.244,169.772 C624.820003,171.932011 625.485996,173.803992 626.242,175.388 C626.998004,176.972008 627.807996,177.764 628.672,177.764 C629.680005,177.764 630.471997,177.871999 631.048,178.088 C631.624003,178.304001 632.127998,178.412 632.56,178.412 C632.776001,178.412 633.153997,178.448 633.694,178.52 C634.234003,178.592 634.809997,178.735999 635.422,178.952 C636.034003,179.168001 636.555998,179.473998 636.988,179.87 C637.420002,180.266002 637.636,180.787997 637.636,181.436 C637.636,182.876007 637.132005,183.883997 636.124,184.46 C635.115995,185.036003 633.928007,185.324 632.56,185.324 L625.324,185 L614.524,185 L611.5,185.324 C611.067998,185.324 610.366005,185.288 609.394,185.216 C608.421995,185.144 607.936,184.856003 607.936,184.352 C607.936,183.343995 608.385996,182.516003 609.286,181.868 C610.186004,181.219997 611.247994,180.680002 612.472,180.248 C613.480005,179.887998 614.325997,179.492002 615.01,179.06 C615.694003,178.627998 616.036,177.908005 616.036,176.9 C616.036,176.683999 615.946001,176.144004 615.766,175.28 C615.585999,174.415996 615.370001,173.498005 615.118,172.526 C614.865999,171.553995 614.578002,170.690004 614.254,169.934 C613.929998,169.177996 613.624001,168.8 613.336,168.8 C613.119999,168.079996 612.958001,167.288004 612.85,166.424 C612.741999,165.559996 612.598001,164.786003 612.418,164.102 C612.237999,163.417997 611.950002,162.896002 611.554,162.536 C611.157998,162.175998 610.564004,162.067999 609.772,162.212 L604.858,162.212 C604.245997,162.212 603.616003,162.248 602.968,162.32 C602.319997,162.392 601.690003,162.481999 601.078,162.59 C600.465997,162.698001 600.052001,162.859999 599.836,163.076 C598.899995,163.508002 598.521999,164.137996 598.702,164.966 C598.882001,165.794004 598.972,166.675995 598.972,167.612 C598.755999,167.900001 598.432002,168.457996 598,169.286 C597.567998,170.114004 597.154002,170.995995 596.758,171.932 C596.361998,172.868005 596.020001,173.731996 595.732,174.524 C595.443999,175.316004 595.3,175.819999 595.3,176.036 C595.3,176.900004 595.533998,177.511998 596.002,177.872 C596.470002,178.232002 596.991997,178.573998 597.568,178.898 C598.144003,179.222002 598.665998,179.671997 599.134,180.248 C599.602002,180.824003 599.836,181.795993 599.836,183.164 C599.836,183.596002 599.692001,183.937999 599.404,184.19 C599.115999,184.442001 598.774002,184.621999 598.378,184.73 C597.981998,184.838001 597.586002,184.91 597.19,184.946 C596.793998,184.982 596.488001,185 596.272,185 C596.272,185.216001 596.200001,185.36 596.056,185.432 C595.911999,185.504 595.714001,185.54 595.462,185.54 C595.209999,185.54 594.868002,185.360002 594.436,185 L593.302,185 C592.833998,185 592.348003,184.964 591.844,184.892 L589.9,184.676 C588.963995,184.676 588.208003,184.783999 587.632,185 C587.055997,185.216001 586.300005,185.324 585.364,185.324 C584.355995,185.324 583.636002,185.377999 583.204,185.486 C582.771998,185.594001 582.466001,185.701999 582.286,185.81 C582.105999,185.918001 581.98,186.008 581.908,186.08 C581.836,186.152 581.692001,186.188 581.476,186.188 C581.115998,186.188 580.486005,186.152 579.586,186.08 C578.685995,186.008 577.768005,185.882001 576.832,185.702 C575.895995,185.521999 575.086003,185.270002 574.402,184.946 C573.717997,184.621998 573.376,184.244002 573.376,183.812 C573.376,182.443993 573.789996,181.292005 574.618,180.356 C575.446004,179.419995 576.543993,178.952 577.912,178.952 L579.964,178.412 C580.108001,178.412 580.377998,178.286001 580.774,178.034 C581.170002,177.781999 581.583998,177.476002 582.016,177.116 C582.448002,176.755998 582.897998,176.378002 583.366,175.982 C583.834002,175.585998 584.211999,175.280001 584.5,175.064 C584.932002,173.263991 585.705994,171.302011 586.822,169.178 C587.938006,167.053989 588.963995,165.02001 589.9,163.076 C590.332002,161.851994 590.889997,160.574007 591.574,159.242 C592.258003,157.909993 592.887997,156.776005 593.464,155.84 C594.184004,154.471993 594.795997,153.140006 595.3,151.844 C595.804003,150.547994 596.271998,149.234007 596.704,147.902 C597.136002,146.569993 597.603997,145.220007 598.108,143.852 C598.612003,142.483993 599.187997,141.080007 599.836,139.64 C600.340003,138.559995 600.735999,137.390006 601.024,136.13 C601.312001,134.869994 601.581999,133.574007 601.834,132.242 C602.086001,130.909993 602.409998,129.560007 602.806,128.192 C603.202002,126.823993 603.723997,125.456007 604.372,124.088 C604.804002,123.727998 605.271997,123.296003 605.776,122.792 C606.280003,122.287997 606.999995,121.820002 607.936,121.388 L609.772,121.388 Z M608.476,141.152 C607.971997,141.152 607.522002,141.367998 607.126,141.8 C606.729998,142.232002 606.388001,142.717997 606.1,143.258 C605.811999,143.798003 605.596001,144.337997 605.452,144.878 C605.307999,145.418003 605.236,145.795999 605.236,146.012 L605.236,147.47 C605.236,147.794002 605.2,148.081999 605.128,148.334 C605.056,148.586001 604.966001,148.927998 604.858,149.36 C604.749999,149.792002 604.588001,150.475995 604.372,151.412 L604.372,152.276 C604.372,152.708002 604.695997,153.121998 605.344,153.518 C605.992003,153.914002 606.567997,154.112 607.072,154.112 L608.098,154.112 C608.566002,154.112 609.033998,154.076 609.502,154.004 C609.970002,153.932 610.383998,153.788001 610.744,153.572 C611.104002,153.355999 611.284,153.032002 611.284,152.6 C611.284,151.663995 611.032003,150.944003 610.528,150.44 C610.023997,149.935997 609.772,149.432003 609.772,148.928 L609.772,144.176 C609.772,143.743998 609.646001,143.132004 609.394,142.34 C609.141999,141.547996 608.836002,141.152 608.476,141.152 Z M653.08,151.16 C653.512002,151.16 653.823999,151.399998 654.016,151.88 C654.208001,152.360002 654.304,152.791998 654.304,153.176 C653.439996,156.200015 652.672003,158.959988 652,161.456 C651.711999,162.512005 651.424001,163.555995 651.136,164.588 C650.847999,165.620005 650.596001,166.567996 650.38,167.432 C650.163999,168.296004 649.996001,169.027997 649.876,169.628 C649.755999,170.228003 649.696,170.623999 649.696,170.816 C649.696,171.152002 649.636001,171.703996 649.516,172.472 C649.395999,173.240004 649.395999,173.947997 649.516,174.596 C649.636001,175.244003 649.947997,175.675999 650.452,175.892 C650.956003,176.108001 651.831994,175.808004 653.08,174.992 C653.176,174.751999 653.487997,174.440002 654.016,174.056 C654.544003,173.671998 655.119997,173.192003 655.744,172.616 C656.128002,172.231998 656.368,171.836002 656.464,171.428 C656.56,171.019998 656.703999,170.816 656.896,170.816 C656.896,170.431998 657.063998,170.072002 657.4,169.736 C657.736002,169.399998 657.904,169.088001 657.904,168.8 C658,168.463998 658.263998,167.840005 658.696,166.928 C659.128002,166.015995 659.607997,164.912006 660.136,163.616 C660.568002,162.703995 660.975998,161.720005 661.36,160.664 C661.744002,159.607995 662.079999,158.576005 662.368,157.568 C662.656001,156.559995 662.883999,155.636004 663.052,154.796 C663.220001,153.955996 663.304,153.272003 663.304,152.744 C663.304,152.215997 663.423999,151.808001 663.664,151.52 C663.904001,151.231999 664.203998,151.016001 664.564,150.872 C664.924002,150.727999 665.295998,150.644 665.68,150.62 C666.064002,150.596 666.399999,150.584 666.688,150.584 L668.344,150.584 C668.920003,150.584 669.387998,150.871997 669.748,151.448 C670.108002,152.024003 670.288,152.671996 670.288,153.392 C670.288,153.536001 670.228001,153.979996 670.108,154.724 C669.987999,155.468004 669.844001,156.319995 669.676,157.28 C669.507999,158.240005 669.304001,159.223995 669.064,160.232 C668.823999,161.240005 668.584001,162.079997 668.344,162.752 C667.335995,164.912011 666.352005,167.059989 665.392,169.196 C664.431995,171.332011 663.952,173.40799 663.952,175.424 C663.952,175.664001 664.047999,175.927999 664.24,176.216 C664.336,176.360001 664.432,176.48 664.528,176.576 C665.152003,176.576 665.787997,176.384002 666.436,176 C667.084003,175.615998 667.659997,175.208002 668.164,174.776 C668.668003,174.343998 669.111998,173.936002 669.496,173.552 C669.880002,173.167998 670.143999,172.976 670.288,172.976 C670.432001,172.976 670.587999,173.047999 670.756,173.192 C670.924001,173.336001 671.079999,173.479999 671.224,173.624 C671.416001,173.816001 671.583999,174.007999 671.728,174.2 C671.728,174.392001 671.500002,174.859996 671.044,175.604 C670.587998,176.348004 670.060003,177.139996 669.46,177.98 C668.859997,178.820004 668.284003,179.599996 667.732,180.32 C667.179997,181.040004 666.832001,181.471999 666.688,181.616 C666.207998,181.952002 665.788002,182.251999 665.428,182.516 C665.067998,182.780001 664.744001,183.043999 664.456,183.308 C664.167999,183.572001 663.868002,183.883998 663.556,184.244 C663.243998,184.604002 662.896002,185.047997 662.512,185.576 C661.887997,186.200003 661.240003,186.631999 660.568,186.872 C659.895997,187.112001 659.200004,187.232 658.48,187.232 C658.143998,187.232 657.820002,187.124001 657.508,186.908 C657.195998,186.691999 656.920001,186.428002 656.68,186.116 C656.439999,185.803998 656.248001,185.468002 656.104,185.108 C655.959999,184.747998 655.888,184.448001 655.888,184.208 L655.888,182.192 L656.464,180.464 C656.608001,179.983998 656.751999,179.480003 656.896,178.952 C657.040001,178.423997 657.112,177.968002 657.112,177.584 C657.112,177.295999 657.076,176.996002 657.004,176.684 C656.932,176.371998 656.704002,176.216 656.32,176.216 C656.031999,176.216 655.696002,176.395998 655.312,176.756 C654.927998,177.116002 654.544002,177.523998 654.16,177.98 C653.775998,178.436002 653.416002,178.879998 653.08,179.312 C652.743998,179.744002 652.480001,180.031999 652.288,180.176 C651.999999,180.560002 651.472004,181.147996 650.704,181.94 C649.935996,182.732004 649.120004,183.523996 648.256,184.316 C647.391996,185.108004 646.564004,185.815997 645.772,186.44 C644.979996,187.064003 644.416002,187.376 644.08,187.376 C643.791999,187.376 643.504001,187.244001 643.216,186.98 C642.927999,186.715999 642.676001,186.404002 642.46,186.044 C642.243999,185.683998 642.064001,185.324002 641.92,184.964 C641.775999,184.603998 641.704,184.352001 641.704,184.208 L641.704,182.192 C641.704,181.807998 641.728,181.424002 641.776,181.04 C641.824,180.703998 641.86,180.368002 641.884,180.032 C641.908,179.695998 641.92,179.408001 641.92,179.168 C641.92,178.879999 641.979999,178.484003 642.1,177.98 C642.220001,177.475997 642.28,176.888003 642.28,176.216 C642.28,175.591997 642.363999,174.944003 642.532,174.272 C642.700001,173.599997 642.832,173.096002 642.928,172.76 L643.504,170.024 C643.6,169.687998 643.851998,169.112004 644.26,168.296 C644.668002,167.479996 644.872,166.376007 644.872,164.984 C644.872,164.311997 644.896,163.844001 644.944,163.58 C644.992,163.315999 644.704003,163.184 644.08,163.184 C643.791999,163.184 643.492002,163.232 643.18,163.328 C642.867998,163.424 642.448003,163.567999 641.92,163.76 C641.535998,164.000001 641.152002,164.191999 640.768,164.336 C640.383998,164.480001 640.096001,164.552 639.904,164.552 C639.615999,164.552 639.304002,164.372002 638.968,164.012 C638.631998,163.651998 638.464,163.184003 638.464,162.608 C638.464,162.031997 638.607999,161.588002 638.896,161.276 C639.184001,160.963998 639.531998,160.700001 639.94,160.484 C640.348002,160.267999 640.743998,160.052001 641.128,159.836 C641.512002,159.619999 641.775999,159.344002 641.92,159.008 C642.544003,158.527998 643.287996,157.844004 644.152,156.956 C645.016004,156.067996 645.903995,155.192004 646.816,154.328 C647.728005,153.463996 648.603996,152.720003 649.444,152.096 C650.284004,151.471997 651.039997,151.16 651.712,151.16 L653.08,151.16 Z M707.944,121.928 L709.96,121.928 C710.152001,121.928 710.343999,122.071999 710.536,122.36 C710.728001,122.648001 710.872,122.983998 710.968,123.368 C711.112001,123.800002 711.232,124.255998 711.328,124.736 L711.328,126.752 C711.328,128.432008 710.752006,129.847994 709.6,131 C708.447994,132.152006 706.960009,132.728 705.136,132.728 C705.04,132.632 704.920001,132.536 704.776,132.44 C704.487999,132.247999 704.224001,132.152 703.984,132.152 C703.647998,132.152 703.312002,132.2 702.976,132.296 C702.639998,132.392 702.376001,132.535999 702.184,132.728 C701.895999,133.016001 701.572002,133.543996 701.212,134.312 C700.851998,135.080004 700.516002,135.883996 700.204,136.724 C699.891998,137.564004 699.616001,138.355996 699.376,139.1 C699.135999,139.844004 698.992,140.335999 698.944,140.576 L698.584,142.376 C698.295999,143.192004 697.996002,143.911997 697.684,144.536 C697.371998,145.160003 697.108001,145.807997 696.892,146.48 C696.675999,147.152003 696.496001,147.871996 696.352,148.64 C696.207999,149.408004 696.136,150.319995 696.136,151.376 C695.943999,151.712002 695.716001,152.395995 695.452,153.428 C695.187999,154.460005 694.948001,155.539994 694.732,156.668 C694.515999,157.796006 694.336001,158.827995 694.192,159.764 C694.047999,160.700005 693.976,161.239999 693.976,161.384 L693.976,162.752 C693.976,162.992001 693.94,163.375997 693.868,163.904 C693.796,164.432003 693.724,164.983997 693.652,165.56 C693.58,166.136003 693.508,166.675997 693.436,167.18 C693.364,167.684003 693.328,168.007999 693.328,168.152 C693.183999,168.680003 693.1,169.159998 693.076,169.592 C693.052,170.024002 693.064,170.383999 693.112,170.672 C693.16,171.056002 693.232,171.367999 693.328,171.608 C693.328,171.752001 693.292,172.015998 693.22,172.4 C693.148,172.784002 693.112,173.191998 693.112,173.624 C693.112,174.056002 693.16,174.427998 693.256,174.74 C693.352,175.052002 693.591998,175.208 693.976,175.208 C694.600003,175.208 695.235997,174.992002 695.884,174.56 C696.532003,174.127998 697.119997,173.636003 697.648,173.084 C698.176003,172.531997 698.643998,172.040002 699.052,171.608 C699.460002,171.175998 699.759999,170.96 699.952,170.96 C700.240001,170.96 700.515999,171.103999 700.78,171.392 C701.044001,171.680001 701.176,172.015998 701.176,172.4 C700.695998,172.928003 700.288002,173.455997 699.952,173.984 C699.615998,174.464002 699.328001,174.955997 699.088,175.46 C698.847999,175.964003 698.728,176.479997 698.728,177.008 C698.535999,177.536003 698.248002,178.051997 697.864,178.556 C697.479998,179.060003 697.048002,179.599997 696.568,180.176 C696.087998,180.752003 695.620002,181.339997 695.164,181.94 C694.707998,182.540003 694.312002,183.151997 693.976,183.776 C693.976,183.920001 693.868001,184.099999 693.652,184.316 C693.435999,184.532001 693.184001,184.735999 692.896,184.928 C692.607999,185.120001 692.308002,185.299999 691.996,185.468 C691.683998,185.636001 691.456001,185.744 691.312,185.792 C690.207994,186.608004 689.272004,187.207998 688.504,187.592 C687.735996,187.976002 687.352,187.904003 687.352,187.376 C686.871998,187.616001 686.536001,187.556002 686.344,187.196 C686.151999,186.835998 686.02,186.308003 685.948,185.612 C685.876,184.915997 685.864,184.124004 685.912,183.236 C685.96,182.347996 685.996,181.520004 686.02,180.752 C686.044,179.983996 686.032,179.336003 685.984,178.808 C685.936,178.279997 685.792001,178.016 685.552,178.016 C685.167998,178.016 684.676003,178.267997 684.076,178.772 C683.475997,179.276003 682.840003,179.887996 682.168,180.608 C681.735998,180.992002 681.232003,181.543996 680.656,182.264 C680.079997,182.984004 679.492003,183.691997 678.892,184.388 C678.291997,185.084003 677.716003,185.695997 677.164,186.224 C676.611997,186.752003 676.192001,187.016 675.904,187.016 C675.423998,187.016 674.944002,186.884001 674.464,186.62 C673.983998,186.355999 673.564002,186.032002 673.204,185.648 C672.843998,185.263998 672.544001,184.820003 672.304,184.316 C672.063999,183.811997 671.944,183.296003 671.944,182.768 L671.944,178.376 C671.944,178.231999 671.992,177.884003 672.088,177.332 C672.184,176.779997 672.303999,176.168003 672.448,175.496 C672.592001,174.727996 672.759999,173.888005 672.952,172.976 C672.952,172.783999 672.988,172.520002 673.06,172.184 C673.132,171.847998 673.216,171.536001 673.312,171.248 C673.456001,170.911998 673.599999,170.552002 673.744,170.168 L673.744,169.592 L674.032,168.152 C674.128,167.767998 674.2,167.384002 674.248,167 C674.296,166.615998 674.32,166.352001 674.32,166.208 C674.608001,165.487996 674.811999,164.816003 674.932,164.192 C675.052001,163.567997 675.327998,162.896004 675.76,162.176 C675.904001,161.119995 676.275997,160.208004 676.876,159.44 C677.476003,158.671996 678.183996,157.976003 679,157.352 C679.816004,156.727997 680.643996,156.140003 681.484,155.588 C682.324004,155.035997 683.079997,154.424003 683.752,153.752 C684.040001,153.752 684.303999,153.728 684.544,153.68 C685.024002,153.584 685.431998,153.344002 685.768,152.96 C686.632004,152.815999 687.315997,152.696 687.82,152.6 C688.324003,152.504 688.731998,152.348001 689.044,152.132 C689.356002,151.915999 689.571999,151.640002 689.692,151.304 C689.812001,150.967998 689.896,150.464003 689.944,149.792 L690.52,147.776 L691.168,143.384 L691.744,140.576 C691.744,140.431999 691.792,140.096003 691.888,139.568 C691.984,139.039997 692.103999,138.488003 692.248,137.912 C692.392001,137.335997 692.535999,136.796003 692.68,136.292 C692.824001,135.787997 692.92,135.488 692.968,135.392 C693.064,135.151999 693.112,134.960001 693.112,134.816 L693.112,134.168 C693.112,133.975999 693.183999,133.688002 693.328,133.304 C693.472001,132.919998 693.639999,132.488002 693.832,132.008 C694.024001,131.527998 694.239999,131.060002 694.48,130.604 C694.720001,130.147998 694.935999,129.728002 695.128,129.344 C695.608002,128.719997 696.135997,128.000004 696.712,127.184 C697.288003,126.367996 697.887997,125.600004 698.512,124.88 C699.136003,124.159996 699.783997,123.524003 700.456,122.972 C701.128003,122.419997 701.823996,122.072001 702.544,121.928 L703.12,121.928 C703.840004,121.928 704.283999,121.832001 704.452,121.64 C704.620001,121.447999 704.847999,121.352 705.136,121.352 L707.944,121.928 Z M686.92,158.792 C685.959995,158.792 685.024005,159.103997 684.112,159.728 C683.199995,160.352003 682.396003,161.119995 681.7,162.032 C681.003997,162.944005 680.440002,163.879995 680.008,164.84 C679.575998,165.800005 679.36,166.639996 679.36,167.36 C679.36,167.552001 679.300001,168.067996 679.18,168.908 C679.059999,169.748004 679.036,170.587996 679.108,171.428 C679.18,172.268004 679.431998,172.975997 679.864,173.552 C680.296002,174.128003 681.063994,174.272001 682.168,173.984 C683.080005,173.743999 683.955996,173.144005 684.796,172.184 C685.636004,171.223995 686.355997,170.096006 686.956,168.8 C687.556003,167.503994 688.011998,166.148007 688.324,164.732 C688.636002,163.315993 688.768,162.008006 688.72,160.808 C688.72,160.423998 688.648001,160.088001 688.504,159.8 C688.408,159.559999 688.228001,159.332001 687.964,159.116 C687.699999,158.899999 687.352002,158.792 686.92,158.792 Z M710.608,150.368 C711.424004,150.368 712.095997,150.667997 712.624,151.268 C713.152003,151.868003 713.416,152.503997 713.416,153.176 L712.768,155.192 C713.056001,155.480001 713.248,155.887997 713.344,156.416 C713.392,156.656001 713.416,156.919999 713.416,157.208 C713.416,158.168005 713.308001,159.055996 713.092,159.872 C712.875999,160.688004 712.768,161.599995 712.768,162.608 L712.768,163.184 C712.768,163.424001 712.744,163.699998 712.696,164.012 C712.648,164.324002 712.576,164.623999 712.48,164.912 C712.384,165.248002 712.288,165.607998 712.192,165.992 L712.192,166.784 C712.192,167.312003 712.108001,167.743998 711.94,168.08 C711.771999,168.416002 711.592001,168.847997 711.4,169.376 C711.304,169.760002 711.148001,170.155998 710.932,170.564 C710.715999,170.972002 710.608,171.439997 710.608,171.968 C710.608,172.160001 710.656,172.411998 710.752,172.724 C710.848,173.036002 710.991999,173.347998 711.184,173.66 C711.376001,173.972002 711.603999,174.235999 711.868,174.452 C712.132001,174.668001 712.431998,174.776 712.768,174.776 C713.152002,174.776 713.499998,174.656001 713.812,174.416 C714.124002,174.175999 714.375999,173.912001 714.568,173.624 C714.808001,173.383999 715.059999,173.180001 715.324,173.012 C715.588001,172.843999 715.887998,172.76 716.224,172.76 L717.592,172.76 C717.880001,172.76 718.048,172.903999 718.096,173.192 C718.144,173.480001 718.168,173.815998 718.168,174.2 C718.168,174.344001 717.952002,174.631998 717.52,175.064 C717.087998,175.496002 716.608003,175.963997 716.08,176.468 C715.551997,176.972003 715.024003,177.451998 714.496,177.908 C713.967997,178.364002 713.608001,178.663999 713.416,178.808 C713.271999,179.144002 712.960002,179.719996 712.48,180.536 C711.999998,181.352004 711.472003,182.179996 710.896,183.02 C710.319997,183.860004 709.708003,184.603997 709.06,185.252 C708.411997,185.900003 707.848002,186.224 707.368,186.224 C707.031998,186.224 706.660002,186.116001 706.252,185.9 C705.843998,185.683999 705.472002,185.396002 705.136,185.036 C704.799998,184.675998 704.524001,184.304002 704.308,183.92 C704.091999,183.535998 703.984,183.152002 703.984,182.768 L703.984,181.616 C703.984,181.231998 703.96,180.896001 703.912,180.608 C703.864,180.319999 703.696001,180.176 703.408,180.176 L703.408,178.808 L703.984,176.792 L703.984,173.408 C703.984,172.687996 704.079999,172.112002 704.272,171.68 C704.464001,171.247998 704.56,170.696003 704.56,170.024 L704.56,169.376 C704.56,169.039998 704.667999,168.560003 704.884,167.936 C705.100001,167.311997 705.327999,166.640004 705.568,165.92 C705.808001,165.199996 706.035999,164.492003 706.252,163.796 C706.468001,163.099997 706.576,162.488003 706.576,161.96 C706.576,161.575998 706.420002,161.156002 706.108,160.7 C705.795998,160.243998 705.280004,160.016 704.56,160.016 C704.271999,160.016 704.020001,160.111999 703.804,160.304 C703.587999,160.496001 702.976005,160.592 701.968,160.592 C701.872,160.544 701.776,160.424001 701.68,160.232 C701.487999,159.943999 701.392,159.584002 701.392,159.152 L701.392,158 C701.392,157.567998 701.811996,156.932004 702.652,156.092 C703.492004,155.251996 704.451995,154.412004 705.532,153.572 C706.612005,152.731996 707.655995,151.988003 708.664,151.34 C709.672005,150.691997 710.319999,150.368 710.608,150.368 Z M710.824,133.376 C711.016001,133.376 711.267998,133.34 711.58,133.268 C711.892002,133.196 712.215998,133.124 712.552,133.052 C712.888002,132.98 713.211998,132.908 713.524,132.836 C713.836002,132.764 714.063999,132.728 714.208,132.728 C714.880003,132.968001 715.311999,133.375997 715.504,133.952 C715.696001,134.528003 715.983998,135.127997 716.368,135.752 C716.368,136.136002 716.404,136.519998 716.476,136.904 C716.548,137.288002 716.584,137.647998 716.584,137.984 C716.584,138.272001 716.488001,138.619998 716.296,139.028 C716.103999,139.436002 716.008,139.951997 716.008,140.576 C715.912,140.912002 715.780001,141.319998 715.612,141.8 C715.443999,142.280002 715.228001,142.723998 714.964,143.132 C714.699999,143.540002 714.388002,143.875999 714.028,144.14 C713.667998,144.404001 713.248002,144.488 712.768,144.392 C712.095997,144.392 711.364004,144.164002 710.572,143.708 C709.779996,143.251998 709.192002,142.664004 708.808,141.944 C708.471998,141.655999 708.352,141.224003 708.448,140.648 C708.544,140.071997 708.592,139.568002 708.592,139.136 C708.592,137.839994 708.807998,136.784004 709.24,135.968 C709.672002,135.151996 710.199997,134.288005 710.824,133.376 Z M734.8,140 C735.232002,140 735.651998,140.012 736.06,140.036 C736.468002,140.06 736.851998,140.131999 737.212,140.252 C737.572002,140.372001 737.859999,140.563999 738.076,140.828 C738.292001,141.092001 738.4,141.463998 738.4,141.944 C738.4,142.232001 738.064003,142.771996 737.392,143.564 C736.719997,144.356004 735.988004,145.219995 735.196,146.156 C734.403996,147.092005 733.672003,148.003996 733,148.892 C732.327997,149.780004 731.992,150.463998 731.992,150.944 C731.992,151.328002 732.099999,151.615999 732.316,151.808 C732.532001,152.000001 732.783999,152.132 733.072,152.204 C733.360001,152.276 733.659998,152.324 733.972,152.348 C734.284002,152.372 734.511999,152.384 734.656,152.384 L737.032,152.384 C737.128,152.288 737.271999,152.168001 737.464,152.024 C737.848002,151.735999 738.159999,151.592 738.4,151.592 C739.120004,151.592 739.635998,151.879997 739.948,152.456 C740.260002,153.032003 740.416,153.679996 740.416,154.4 L740.416,156.344 C740.416,156.872003 740.128003,157.279999 739.552,157.568 C738.975997,157.856001 738.340003,158.071999 737.644,158.216 C736.947997,158.360001 736.276003,158.456 735.628,158.504 C734.979997,158.552 734.584001,158.576 734.44,158.576 C733.719996,158.576 733.312,158.54 733.216,158.468 C733.12,158.396 732.928001,158.36 732.64,158.36 L731.2,158.36 C730.911999,158.36 730.504003,158.503999 729.976,158.792 C729.447997,159.080001 729.184,159.415998 729.184,159.8 C729.184,160.328003 729.16,160.795998 729.112,161.204 C729.064,161.612002 729.016,161.959999 728.968,162.248 C728.92,162.584002 728.872,162.895999 728.824,163.184 C728.679999,163.472001 728.536001,163.735999 728.392,163.976 C728.151999,164.456002 728.032,164.863998 728.032,165.2 L728.032,165.992 C728.032,166.808004 727.912001,167.695995 727.672,168.656 C727.431999,169.616005 727.216001,170.191999 727.024,170.384 C726.783999,170.624001 726.592001,170.851999 726.448,171.068 C726.303999,171.284001 726.232,171.847995 726.232,172.76 L726.232,174.2 C726.232,174.488001 726.28,174.835998 726.376,175.244 C726.472,175.652002 726.639999,176.023998 726.88,176.36 C727.120001,176.696002 727.407998,176.983999 727.744,177.224 C728.080002,177.464001 728.511997,177.584 729.04,177.584 C729.664003,177.584 730.191998,177.416002 730.624,177.08 C730.816001,176.935999 731.007999,176.768001 731.2,176.576 C731.584002,176.576 731.883999,176.683999 732.1,176.9 C732.316001,177.116001 732.519999,177.343999 732.712,177.584 C732.904001,177.872001 733.071999,178.207998 733.216,178.592 C733.216,178.976002 733.060002,179.479997 732.748,180.104 C732.435998,180.728003 732.064002,181.339997 731.632,181.94 C731.199998,182.540003 730.744002,183.067998 730.264,183.524 C729.783998,183.980002 729.376002,184.208 729.04,184.208 C728.703998,184.208 728.380002,184.483997 728.068,185.036 C727.755998,185.588003 727.6,185.983999 727.6,186.224 C727.455999,186.224 727.192002,186.272 726.808,186.368 L725.656,186.656 C725.175998,186.800001 724.696002,186.92 724.216,187.016 C723.591997,187.016 723.100002,186.98 722.74,186.908 C722.379998,186.836 722.2,186.608002 722.2,186.224 C722.055999,186.128 721.840001,185.780003 721.552,185.18 C721.263999,184.579997 720.976001,183.920004 720.688,183.2 C720.399999,182.479996 720.148001,181.772003 719.932,181.076 C719.715999,180.379997 719.608,179.888001 719.608,179.6 L719.608,176.216 C719.608,176.023999 719.667999,175.580003 719.788,174.884 C719.908001,174.187997 720.051999,173.420004 720.22,172.58 C720.388001,171.739996 720.531999,170.900004 720.652,170.06 C720.772001,169.219996 720.832,168.536003 720.832,168.008 L720.832,166.784 C721.216002,165.679994 721.575998,164.696004 721.912,163.832 C722.152001,163.063996 722.391999,162.356003 722.632,161.708 C722.872001,161.059997 722.992,160.688 722.992,160.592 L722.992,158.36 C722.992,157.735997 722.800002,157.352001 722.416,157.208 C722.127999,156.967999 721.816002,156.728001 721.48,156.488 C721.143998,156.247999 720.976,155.936002 720.976,155.552 C720.976,155.263999 721.083999,154.964002 721.3,154.652 C721.516001,154.339998 721.779998,154.016002 722.092,153.68 C722.404002,153.343998 722.715998,152.996002 723.028,152.636 C723.340002,152.275998 723.591999,151.928002 723.784,151.592 C724.120002,150.871996 724.443998,150.428001 724.756,150.26 C725.068002,150.091999 725.415998,149.864001 725.8,149.576 C726.424003,148.855996 727.095996,148.256002 727.816,147.776 C728.536004,147.295998 729.207997,146.552005 729.832,145.544 C730.216002,144.871997 730.503999,144.200003 730.696,143.528 C730.888001,142.855997 731.319997,142.328002 731.992,141.944 C732.616003,141.751999 733.167998,141.380003 733.648,140.828 C734.128002,140.275997 734.511999,140 734.8,140 Z M757.624,143.6 C758.344004,143.6 758.883998,143.755998 759.244,144.068 C759.604002,144.380002 759.879999,144.775998 760.072,145.256 C760.264001,145.736002 760.372,146.227997 760.396,146.732 C760.42,147.236003 760.432,147.655998 760.432,147.992 L760.432,149.36 C760.143999,150.464006 759.652003,151.471995 758.956,152.384 C758.259997,153.296005 757.360006,153.752 756.256,153.752 C755.535996,153.752 754.768004,153.524002 753.952,153.068 C753.135996,152.611998 752.224005,152.384 751.216,152.384 C750.159995,152.384 749.128005,152.755996 748.12,153.5 C747.111995,154.244004 746.200004,155.119995 745.384,156.128 C744.567996,157.136005 743.908003,158.155995 743.404,159.188 C742.899997,160.220005 742.648,161.023997 742.648,161.6 L742.648,166.352 C742.648,166.928003 742.743999,167.911993 742.936,169.304 C743.128001,170.696007 743.439998,172.123993 743.872,173.588 C744.304002,175.052007 744.867997,176.347994 745.564,177.476 C746.260003,178.604006 747.135995,179.168 748.192,179.168 L749.632,178.592 C750.736006,178.592 751.767995,178.460001 752.728,178.196 C753.688005,177.931999 754.575996,177.392004 755.392,176.576 C756.448005,175.327994 757.455995,174.344004 758.416,173.624 C758.704001,173.383999 759.039998,173.216 759.424,173.12 C759.808002,173.024 760.143999,172.976 760.432,172.976 C760.528,173.072 760.647999,173.215999 760.792,173.408 C761.080001,173.792002 761.224,174.127999 761.224,174.416 C761.224,175.472005 760.840004,176.683993 760.072,178.052 C759.303996,179.420007 758.380005,180.715994 757.3,181.94 C756.219995,183.164006 755.116006,184.207996 753.988,185.072 C752.859994,185.936004 751.936004,186.368 751.216,186.368 L750.64,186.368 C749.967997,186.512001 749.344003,186.655999 748.768,186.8 C748.239997,186.896 747.736002,186.992 747.256,187.088 C746.775998,187.184 746.440001,187.232 746.248,187.232 C745.863998,187.232 745.324003,187.064002 744.628,186.728 C743.931997,186.391998 743.200004,185.996002 742.432,185.54 C741.663996,185.083998 740.968003,184.604003 740.344,184.1 C739.719997,183.595997 739.336001,183.152002 739.192,182.768 C738.999999,182.623999 738.748002,182.156004 738.436,181.364 C738.123998,180.571996 737.812002,179.684005 737.5,178.7 C737.187998,177.715995 736.924001,176.744005 736.708,175.784 C736.491999,174.823995 736.384,174.104002 736.384,173.624 L736.384,171.392 C736.239999,171.103999 736.096001,170.840001 735.952,170.6 C735.711999,170.119998 735.592,169.712002 735.592,169.376 C735.688,168.799997 735.807999,168.248003 735.952,167.72 C736.048,167.287998 736.144,166.832002 736.24,166.352 C736.336,165.871998 736.384,165.488001 736.384,165.2 L736.384,163.616 C736.384,163.471999 736.336,163.292001 736.24,163.076 C736.144,162.859999 736.048,162.632001 735.952,162.392 C735.807999,162.151999 735.688,161.888001 735.592,161.6 L736.384,159.368 L736.384,158 C736.768002,157.183996 737.127998,156.440003 737.464,155.768 C737.752001,155.191997 738.051998,154.640003 738.364,154.112 C738.676002,153.583997 738.951999,153.200001 739.192,152.96 C739.336001,152.047995 739.695997,151.232004 740.272,150.512 C740.848003,149.791996 741.531996,149.120003 742.324,148.496 C743.116004,147.871997 743.967995,147.296003 744.88,146.768 L747.616,145.184 C748.144003,145.088 748.671997,144.968001 749.2,144.824 C749.584002,144.728 749.979998,144.632 750.388,144.536 C750.796002,144.44 751.071999,144.392 751.216,144.392 L755.392,144.392 L757.624,143.6 Z M786.064,119.984 C787.072005,119.984 787.911997,120.247997 788.584,120.776 C789.256003,121.304003 789.807998,121.927996 790.24,122.648 C790.672002,123.368004 790.983999,124.111996 791.176,124.88 C791.368001,125.648004 791.464,126.271998 791.464,126.752 C791.464,127.136002 791.176003,127.663997 790.6,128.336 C790.023997,129.008003 789.400003,129.679997 788.728,130.352 C787.911996,131.168004 787.024005,132.031995 786.064,132.944 C785.727998,133.280002 785.368002,133.472 784.984,133.52 C784.599998,133.568 784.216002,133.592 783.832,133.592 C783.303997,133.592 782.836002,133.628 782.428,133.7 C782.019998,133.772 781.624002,133.999998 781.24,134.384 C780.231995,134.960003 779.440003,135.679996 778.864,136.544 C778.287997,137.408004 777.808002,138.343995 777.424,139.352 C777.424,139.544001 777.364001,139.879998 777.244,140.36 C777.123999,140.840002 776.980001,141.343997 776.812,141.872 C776.643999,142.400003 776.500001,142.903998 776.38,143.384 C776.259999,143.864002 776.2,144.199999 776.2,144.392 L775.408,147.56 C775.36,147.704001 775.228001,148.231995 775.012,149.144 C774.795999,150.056005 774.568001,151.087994 774.328,152.24 C774.087999,153.392006 773.872001,154.519994 773.68,155.624 C773.487999,156.728006 773.392,157.519998 773.392,158 C773.392,158.192001 773.416,158.383999 773.464,158.576 C773.56,158.960002 773.751999,159.152 774.04,159.152 C774.616003,159.152 775.311996,158.792004 776.128,158.072 C776.944004,157.351996 777.855995,156.656003 778.864,155.984 C779.152001,155.695999 779.559997,155.312002 780.088,154.832 C780.616003,154.351998 781.167997,153.884002 781.744,153.428 C782.320003,152.971998 782.883997,152.588002 783.436,152.276 C783.988003,151.963998 784.455998,151.808 784.84,151.808 L786.064,151.808 C786.976005,151.808 787.671998,152.215996 788.152,153.032 C788.632002,153.848004 788.979999,154.759995 789.196,155.768 C789.412001,156.776005 789.544,157.723996 789.592,158.612 C789.64,159.500004 789.664,160.015999 789.664,160.16 L789.448,162.608 C789.448,162.896001 789.484,163.495995 789.556,164.408 C789.628,165.320005 789.664,166.111997 789.664,166.784 C789.664,166.928001 789.628,167.107999 789.556,167.324 C789.484,167.540001 789.4,167.767999 789.304,168.008 C789.208,168.248001 789.112,168.511999 789.016,168.8 L789.016,170.168 C789.016,170.792003 788.956001,171.211999 788.836,171.428 C788.715999,171.644001 788.656,172.087997 788.656,172.76 C788.415999,173.528004 788.152001,174.079998 787.864,174.416 C787.527998,174.704001 787.276001,175.063998 787.108,175.496 C786.939999,175.928002 786.712001,176.287999 786.424,176.576 C786.231999,177.296004 785.920002,178.135995 785.488,179.096 C785.055998,180.056005 784.504003,180.895996 783.832,181.616 C783.495998,181.952002 783.184001,182.419997 782.896,183.02 C782.607999,183.620003 782.308002,184.219997 781.996,184.82 C781.683998,185.420003 781.300002,185.935998 780.844,186.368 C780.387998,186.800002 779.848003,187.016 779.224,187.016 L775.84,187.016 C775.695999,187.016 775.432002,187.004 775.048,186.98 C774.663998,186.956 774.280002,186.884001 773.896,186.764 C773.511998,186.643999 773.176001,186.452001 772.888,186.188 C772.599999,185.923999 772.456,185.528003 772.456,185 C772.456,184.663998 772.587999,184.256002 772.852,183.776 C773.116001,183.295998 773.403998,182.828002 773.716,182.372 C774.028002,181.915998 774.351998,181.484002 774.688,181.076 C775.024002,180.667998 775.263999,180.368001 775.408,180.176 C776.128004,179.599997 776.799997,179.000003 777.424,178.376 C778.048003,177.751997 778.527998,177.296001 778.864,177.008 C779.824005,176.287996 780.411999,175.580003 780.628,174.884 C780.844001,174.187997 781.119998,173.480004 781.456,172.76 C782.128003,171.463994 782.655998,170.396004 783.04,169.556 C783.424002,168.715996 783.616,167.792005 783.616,166.784 L783.616,163.976 C783.616,163.783999 783.568,163.496002 783.472,163.112 C783.376,162.727998 783.208001,162.356002 782.968,161.996 C782.727999,161.635998 782.428002,161.312001 782.068,161.024 C781.707998,160.735999 781.288002,160.592 780.808,160.592 C780.519999,160.592 780.292001,160.723999 780.124,160.988 C779.955999,161.252001 779.536003,161.575998 778.864,161.96 C777.135991,163.256006 775.768005,164.659992 774.76,166.172 C773.751995,167.684008 772.840004,169.279992 772.024,170.96 C771.735999,171.968005 771.496001,173.035994 771.304,174.164 L770.728,177.548 C770.535999,178.676006 770.344001,179.767995 770.152,180.824 C769.959999,181.880005 769.720001,182.863995 769.432,183.776 C769.047998,184.400003 768.580003,184.891998 768.028,185.252 C767.475997,185.612002 767.008002,185.792 766.624,185.792 C765.903996,185.792 765.364002,185.600002 765.004,185.216 C764.643998,184.831998 764.368001,184.376003 764.176,183.848 C763.983999,183.319997 763.876,182.780003 763.852,182.228 C763.828,181.675997 763.816,181.256001 763.816,180.968 L763.816,174.2 C763.816,174.007999 763.959999,173.360006 764.248,172.256 C764.536001,171.151994 764.859998,169.916007 765.22,168.548 C765.580002,167.179993 765.903999,165.848006 766.192,164.552 C766.480001,163.255994 766.624,162.272003 766.624,161.6 C766.768001,161.215998 766.876,160.856002 766.948,160.52 C767.02,160.183998 767.104,159.872001 767.2,159.584 C767.296,159.247998 767.368,158.912002 767.416,158.576 L767.416,156.56 C767.416,156.367999 767.428,156.212001 767.452,156.092 C767.476,155.971999 767.607999,155.864 767.848,155.768 C767.848,155.672 767.872,155.576 767.92,155.48 C767.968,155.384 767.992,155.288 767.992,155.192 L767.992,153.752 C767.992,153.607999 768.063999,153.284003 768.208,152.78 C768.352001,152.275997 768.519999,151.712003 768.712,151.088 C768.904001,150.463997 769.071999,149.840003 769.216,149.216 C769.360001,148.591997 769.432,148.112002 769.432,147.776 L769.432,143.384 C769.432,141.991993 769.611998,140.744006 769.972,139.64 C770.332002,138.535994 770.607999,137.648003 770.8,136.976 L771.016,134.96 C771.064,134.623998 771.243998,134.108003 771.556,133.412 C771.868002,132.715997 772.215998,132.008004 772.6,131.288 C772.984002,130.567996 773.367998,129.896003 773.752,129.272 C774.136002,128.647997 774.423999,128.264001 774.616,128.12 C774.904001,127.975999 775.107999,127.712002 775.228,127.328 C775.348001,126.943998 775.467999,126.536002 775.588,126.104 C775.708001,125.671998 775.875999,125.252002 776.092,124.844 C776.308001,124.435998 776.679997,124.136001 777.208,123.944 C777.304,123.944 777.447999,123.932 777.64,123.908 C777.832001,123.884 778.023999,123.824 778.216,123.728 C778.312,123.632 778.455999,123.584 778.648,123.584 L779.224,123.584 C779.608002,123.199998 780.171996,122.792002 780.916,122.36 C781.660004,121.927998 782.415996,121.520002 783.184,121.136 C784.048004,120.703998 785.007995,120.320002 786.064,119.984 Z M813.208,150.152 C814.216005,150.152 814.935998,150.439997 815.368,151.016 C815.800002,151.592003 816.016,152.383995 816.016,153.392 C816.016,153.584001 815.944001,154.003997 815.8,154.652 C815.655999,155.300003 815.476001,156.019996 815.26,156.812 C815.043999,157.604004 814.816001,158.407996 814.576,159.224 C814.335999,160.040004 814.144001,160.687998 814,161.168 C814,161.552002 813.976,161.947998 813.928,162.356 C813.88,162.764002 813.712001,163.303997 813.424,163.976 C813.039998,164.264001 812.848,164.731997 812.848,165.38 L812.848,166.784 L812.632,170.6 L812.632,173.408 C812.632,173.552001 812.644,173.803998 812.668,174.164 C812.692,174.524002 812.74,174.883998 812.812,175.244 C812.884,175.604002 813.015999,175.915999 813.208,176.18 C813.400001,176.444001 813.663998,176.576 814,176.576 L815.008,174.992 C815.296001,174.751999 815.631998,174.452002 816.016,174.092 C816.400002,173.731998 816.783998,173.384002 817.168,173.048 C817.600002,172.663998 818.031998,172.256002 818.464,171.824 C818.752001,171.824 818.991999,171.943999 819.184,172.184 C819.376001,172.424001 819.472,172.687999 819.472,172.976 L819.184,173.552 C818.991999,173.936002 818.800001,174.223999 818.608,174.416 C818.271998,175.376005 817.840003,176.203997 817.312,176.9 C816.783997,177.596003 816.208003,178.267997 815.584,178.916 C814.959997,179.564003 814.324003,180.223997 813.676,180.896 C813.027997,181.568003 812.416003,182.335996 811.84,183.2 L810.256,185.432 C810.256,185.864002 810.124001,186.307998 809.86,186.764 C809.595999,187.220002 809.284002,187.579999 808.924,187.844 C808.563998,188.108001 808.180002,188.228 807.772,188.204 C807.363998,188.18 807.040001,187.904003 806.8,187.376 C806.511999,186.511996 806.368,185.660004 806.368,184.82 C806.368,183.979996 806.439999,183.164004 806.584,182.372 C806.728001,181.579996 806.871999,180.824004 807.016,180.104 C807.160001,179.383996 807.232,178.688003 807.232,178.016 L807.232,173.984 C807.232,173.743999 807.064002,173.576 806.728,173.48 C806.535999,173.432 806.368001,173.408 806.224,173.408 C806.079999,173.408 805.720003,173.827996 805.144,174.668 C804.567997,175.508004 803.908004,176.467995 803.164,177.548 C802.419996,178.628005 801.664004,179.719994 800.896,180.824 C800.127996,181.928006 799.504002,182.719998 799.024,183.2 C798.879999,183.392001 798.652002,183.667998 798.34,184.028 C798.027998,184.388002 797.692002,184.735998 797.332,185.072 C796.971998,185.408002 796.576002,185.707999 796.144,185.972 C795.711998,186.236001 795.328002,186.368 794.992,186.368 C794.319997,186.368 793.768002,186.128002 793.336,185.648 C792.903998,185.167998 792.568001,184.604003 792.328,183.956 C792.087999,183.307997 791.908001,182.660003 791.788,182.012 C791.667999,181.363997 791.608,180.896001 791.608,180.608 L791.392,175.424 L792.4,167 C792.4,166.855999 792.471999,166.520003 792.616,165.992 C792.760001,165.463997 792.951999,164.888003 793.192,164.264 C793.432001,163.639997 793.707998,163.028003 794.02,162.428 C794.332002,161.827997 794.655998,161.336002 794.992,160.952 C796.384007,159.655994 797.727994,158.072009 799.024,156.2 C799.648003,155.335996 800.247997,154.712002 800.824,154.328 C801.400003,153.943998 801.975997,153.644001 802.552,153.428 C803.128003,153.211999 803.703997,153.044001 804.28,152.924 C804.856003,152.803999 805.503996,152.552002 806.224,152.168 C806.512001,152.168 806.883998,152.012002 807.34,151.7 C807.796002,151.387998 808.215998,151.088001 808.6,150.8 L811.84,150.8 L813.208,150.152 Z M803.992,158.144 C803.127996,158.864004 802.312004,159.691995 801.544,160.628 C800.775996,161.564005 800.104003,162.511995 799.528,163.472 C798.951997,164.432005 798.496002,165.331996 798.16,166.172 C797.823998,167.012004 797.656,167.671998 797.656,168.152 C797.656,168.392001 797.632,168.835997 797.584,169.484 C797.536,170.132003 797.56,170.803997 797.656,171.5 C797.752,172.196003 797.931999,172.819997 798.196,173.372 C798.460001,173.924003 798.927997,174.2 799.6,174.2 C800.224003,174.2 800.955996,173.648006 801.796,172.544 C802.636004,171.439994 803.427996,170.192007 804.172,168.8 C804.916004,167.407993 805.539997,166.112006 806.044,164.912 C806.548003,163.711994 806.8,162.992001 806.8,162.752 C806.8,162.559999 806.824,162.092004 806.872,161.348 C806.92,160.603996 806.884001,159.884003 806.764,159.188 C806.643999,158.491997 806.380002,157.988002 805.972,157.676 C805.563998,157.363998 804.904005,157.519997 803.992,158.144 Z M828.472,150.368 C829.288004,150.368 829.959997,150.667997 830.488,151.268 C831.016003,151.868003 831.28,152.503997 831.28,153.176 L830.632,155.192 C830.920001,155.480001 831.112,155.887997 831.208,156.416 C831.256,156.656001 831.28,156.919999 831.28,157.208 C831.28,158.168005 831.172001,159.055996 830.956,159.872 C830.739999,160.688004 830.632,161.599995 830.632,162.608 L830.632,163.184 C830.632,163.424001 830.608,163.699998 830.56,164.012 C830.512,164.324002 830.44,164.623999 830.344,164.912 C830.248,165.248002 830.152,165.607998 830.056,165.992 L830.056,166.784 C830.056,167.312003 829.972001,167.743998 829.804,168.08 C829.635999,168.416002 829.456001,168.847997 829.264,169.376 C829.168,169.760002 829.012001,170.155998 828.796,170.564 C828.579999,170.972002 828.472,171.439997 828.472,171.968 C828.472,172.160001 828.52,172.411998 828.616,172.724 C828.712,173.036002 828.855999,173.347998 829.048,173.66 C829.240001,173.972002 829.467999,174.235999 829.732,174.452 C829.996001,174.668001 830.295998,174.776 830.632,174.776 C831.016002,174.776 831.363998,174.656001 831.676,174.416 C831.988002,174.175999 832.239999,173.912001 832.432,173.624 C832.672001,173.383999 832.923999,173.180001 833.188,173.012 C833.452001,172.843999 833.751998,172.76 834.088,172.76 L835.456,172.76 C835.744001,172.76 835.912,172.903999 835.96,173.192 C836.008,173.480001 836.032,173.815998 836.032,174.2 C836.032,174.344001 835.816002,174.631998 835.384,175.064 C834.951998,175.496002 834.472003,175.963997 833.944,176.468 C833.415997,176.972003 832.888003,177.451998 832.36,177.908 C831.831997,178.364002 831.472001,178.663999 831.28,178.808 C831.135999,179.144002 830.824002,179.719996 830.344,180.536 C829.863998,181.352004 829.336003,182.179996 828.76,183.02 C828.183997,183.860004 827.572003,184.603997 826.924,185.252 C826.275997,185.900003 825.712002,186.224 825.232,186.224 C824.895998,186.224 824.524002,186.116001 824.116,185.9 C823.707998,185.683999 823.336002,185.396002 823,185.036 C822.663998,184.675998 822.388001,184.304002 822.172,183.92 C821.955999,183.535998 821.848,183.152002 821.848,182.768 L821.848,181.616 C821.848,181.231998 821.824,180.896001 821.776,180.608 C821.728,180.319999 821.560001,180.176 821.272,180.176 L821.272,178.808 L821.848,176.792 L821.848,173.408 C821.848,172.687996 821.943999,172.112002 822.136,171.68 C822.328001,171.247998 822.424,170.696003 822.424,170.024 L822.424,169.376 C822.424,169.039998 822.531999,168.560003 822.748,167.936 C822.964001,167.311997 823.191999,166.640004 823.432,165.92 C823.672001,165.199996 823.899999,164.492003 824.116,163.796 C824.332001,163.099997 824.44,162.488003 824.44,161.96 C824.44,161.575998 824.284002,161.156002 823.972,160.7 C823.659998,160.243998 823.144004,160.016 822.424,160.016 C822.135999,160.016 821.884001,160.111999 821.668,160.304 C821.451999,160.496001 820.840005,160.592 819.832,160.592 C819.736,160.544 819.64,160.424001 819.544,160.232 C819.351999,159.943999 819.256,159.584002 819.256,159.152 L819.256,158 C819.256,157.567998 819.675996,156.932004 820.516,156.092 C821.356004,155.251996 822.315995,154.412004 823.396,153.572 C824.476005,152.731996 825.519995,151.988003 826.528,151.34 C827.536005,150.691997 828.183999,150.368 828.472,150.368 Z M828.688,133.376 C828.880001,133.376 829.131998,133.34 829.444,133.268 C829.756002,133.196 830.079998,133.124 830.416,133.052 C830.752002,132.98 831.075998,132.908 831.388,132.836 C831.700002,132.764 831.927999,132.728 832.072,132.728 C832.744003,132.968001 833.175999,133.375997 833.368,133.952 C833.560001,134.528003 833.847998,135.127997 834.232,135.752 C834.232,136.136002 834.268,136.519998 834.34,136.904 C834.412,137.288002 834.448,137.647998 834.448,137.984 C834.448,138.272001 834.352001,138.619998 834.16,139.028 C833.967999,139.436002 833.872,139.951997 833.872,140.576 C833.776,140.912002 833.644001,141.319998 833.476,141.8 C833.307999,142.280002 833.092001,142.723998 832.828,143.132 C832.563999,143.540002 832.252002,143.875999 831.892,144.14 C831.531998,144.404001 831.112002,144.488 830.632,144.392 C829.959997,144.392 829.228004,144.164002 828.436,143.708 C827.643996,143.251998 827.056002,142.664004 826.672,141.944 C826.335998,141.655999 826.216,141.224003 826.312,140.648 C826.408,140.071997 826.456,139.568002 826.456,139.136 C826.456,137.839994 826.671998,136.784004 827.104,135.968 C827.536002,135.151996 828.063997,134.288005 828.688,133.376 Z M847.48,151.592 C848.008003,151.592 848.415999,151.759998 848.704,152.096 C848.992001,152.432002 849.255999,152.791998 849.496,153.176 C849.640001,153.512002 849.688,153.967997 849.64,154.544 C849.592,155.120003 849.508001,155.695997 849.388,156.272 C849.267999,156.848003 849.148001,157.399997 849.028,157.928 C848.907999,158.456003 848.848,158.815999 848.848,159.008 L849.064,160.16 L849.856,161.6 C850.048001,161.6 850.419997,161.324003 850.972,160.772 C851.524003,160.219997 852.171996,159.536004 852.916,158.72 C853.660004,157.903996 854.439996,157.028005 855.256,156.092 C856.072004,155.155995 856.863996,154.280004 857.632,153.464 C858.400004,152.647996 859.095997,151.964003 859.72,151.412 C860.344003,150.859997 860.799999,150.584 861.088,150.584 C861.472002,150.584 861.795999,150.823998 862.06,151.304 C862.324001,151.784002 862.575999,152.287997 862.816,152.816 C863.056001,153.440003 863.271999,154.159996 863.464,154.976 C863.512,155.648003 863.464001,156.583994 863.32,157.784 C863.175999,158.984006 862.948002,160.291993 862.636,161.708 C862.323998,163.124007 861.988002,164.563993 861.628,166.028 C861.267998,167.492007 860.932002,168.835994 860.62,170.06 C860.307998,171.284006 860.044001,172.303996 859.828,173.12 C859.611999,173.936004 859.504,174.368 859.504,174.416 C859.504,174.608001 859.48,174.835999 859.432,175.1 C859.384,175.364001 859.36,175.603999 859.36,175.82 C859.36,176.036001 859.419999,176.215999 859.54,176.36 C859.660001,176.504001 859.911998,176.576 860.296,176.576 L861.16,176 C861.400001,175.807999 861.663999,175.616001 861.952,175.424 C862.240001,175.231999 862.551998,175.016001 862.888,174.776 C863.704004,174.247997 864.459997,173.756002 865.156,173.3 C865.852003,172.843998 866.295999,172.616 866.488,172.616 C866.776001,172.616 867.087998,172.771998 867.424,173.084 C867.760002,173.396002 867.928,173.695999 867.928,173.984 C867.928,174.08 867.772002,174.343998 867.46,174.776 C867.147998,175.208002 866.776002,175.663998 866.344,176.144 C865.911998,176.624002 865.480002,177.055998 865.048,177.44 C864.615998,177.824002 864.304001,178.016 864.112,178.016 C864.112,178.400002 863.980001,178.759998 863.716,179.096 C863.451999,179.432002 863.176001,179.6 862.888,179.6 C862.119996,180.416004 861.472003,181.207996 860.944,181.976 C860.415997,182.744004 859.888003,183.451997 859.36,184.1 C858.831997,184.748003 858.256003,185.263998 857.632,185.648 C857.007997,186.032002 856.216005,186.224 855.256,186.224 C854.919998,186.224 854.572002,186.104001 854.212,185.864 C853.851998,185.623999 853.528001,185.324002 853.24,184.964 C852.951999,184.603998 852.724001,184.220002 852.556,183.812 C852.387999,183.403998 852.304,183.056001 852.304,182.768 L852.088,180.176 C852.376001,178.879994 852.747998,177.488007 853.204,176 C853.660002,174.511993 854.079998,173.120006 854.464,171.824 C854.848002,170.719994 855.159999,169.664005 855.4,168.656 C855.640001,167.647995 855.808,166.688005 855.904,165.776 L855.904,164.984 C855.711999,163.639993 855.232004,162.968 854.464,162.968 C853.311994,162.968 852.400003,163.219997 851.728,163.724 C851.055997,164.228003 850.504002,164.875996 850.072,165.668 C849.639998,166.460004 849.268002,167.311995 848.956,168.224 C848.643998,169.136005 848.296002,169.999996 847.912,170.816 C847.671999,171.104001 847.516,171.379999 847.444,171.644 C847.372,171.908001 847.384,172.231998 847.48,172.616 C847.384,173.192003 847.276001,173.767997 847.156,174.344 C847.035999,174.920003 846.880001,175.471997 846.688,176 C846.159997,177.536008 845.656002,179.059992 845.176,180.572 C844.695998,182.084008 844.264002,183.487994 843.88,184.784 C844.120001,185.168002 844.084002,185.396 843.772,185.468 C843.459998,185.54 843.160001,185.576 842.872,185.576 C842.583999,185.576 842.176003,185.564 841.648,185.54 C841.119997,185.516 840.604003,185.432001 840.1,185.288 C839.595997,185.143999 839.140002,184.928001 838.732,184.64 C838.323998,184.351999 838.096,183.944003 838.048,183.416 C837.952,182.599996 838.047999,181.748004 838.336,180.86 C838.624001,179.971996 838.947998,179.144004 839.308,178.376 C839.668002,177.607996 840.015998,176.936003 840.352,176.36 C840.688002,175.783997 840.856,175.400001 840.856,175.208 L840.856,172.616 L840.496,171.392 C840.496,171.103999 840.591999,170.732002 840.784,170.276 C840.976001,169.819998 841.179999,169.364002 841.396,168.908 C841.612001,168.451998 841.815999,168.032002 842.008,167.648 C842.200001,167.263998 842.296,166.976001 842.296,166.784 L842.296,165.776 L842.08,162.968 C842.08,162.679999 842.044,162.380002 841.972,162.068 C841.9,161.755998 841.672002,161.6 841.288,161.6 C840.999999,161.6 840.676002,161.671999 840.316,161.816 C839.955998,161.960001 839.596002,162.115999 839.236,162.284 C838.875998,162.452001 838.540002,162.607999 838.228,162.752 C837.915998,162.896001 837.664001,162.968 837.472,162.968 L836.896,162.968 C836.559998,162.775999 836.475999,162.404003 836.644,161.852 C836.812001,161.299997 836.896,160.880001 836.896,160.592 C838.096006,158.911992 839.259994,157.436006 840.388,156.164 C841.516006,154.891994 842.871992,153.752005 844.456,152.744 C844.792002,152.551999 845.247997,152.312001 845.824,152.024 C846.400003,151.735999 846.951997,151.592 847.48,151.592 Z" id="AuditChain"></path>
            </g>
        </g>
    </g>
</svg>